<?xml version="1.0" encoding="utf-8"?><svg version="1.1" id="Layer_1" xmlns="http://www.w3.org/2000/svg" xmlns:xlink="http://www.w3.org/1999/xlink" x="0px" y="0px" viewBox="0 0 122.88 97.22" style="enable-background:new 0 0 122.88 97.22" xml:space="preserve"><style type="text/css"><![CDATA[
	.st0{fill-rule:evenodd;clip-rule:evenodd;}
]]></style><g><path class="st0" d="M68.23,82.89c-10.38,0-3.55,0.81-2.13-10.47c2.12-16.88,18.16-16.88,20.53,0c1.52,10.85,8.03,10.47-2.13,10.47 h-4.06c-0.02,2.77-0.44,3.62,2.42,5.17c1.46,0.79,4.19,1.38,6.51,2.3c3.55-3.03,9.85-1.03,10.5-6.59c0.1-0.85-1.9-3.52-2.35-5.06 c-0.98-1.57-1.33-4.04-0.26-5.69c0.42-0.66,0.25-3.05,0.25-3.95c0-8.99,15.75-9,15.75,0c0,1.13-0.26,3.23,0.35,4.12 c1.03,1.5,0.5,4.15-0.37,5.53c-0.56,1.63-2.68,4.15-2.5,5.06c1.53,7.78,12.13-0.55,12.13,13.45c-40.96,0-81.92-0.56-122.88-0.56 c0-14.23,13.43-5.8,14.46-14.51c0.11-0.95-2.13-4.01-2.64-5.74c-1.09-1.75-1.5-4.54-0.29-6.39c0.48-0.73,0.28-3.42,0.28-4.44 c0-10.08,17.65-10.08,17.65,0c0,1.28-0.29,3.62,0.4,4.62c1.16,1.67,0.56,4.64-0.41,6.2c-0.63,1.83-3,4.71-2.81,5.74 c0.74,3.77,10.13,5.77,13.4,7.15c1.85-0.95,3.33-1.51,3.49-2.82c0.08-0.68-1.52-2.69-1.88-3.93c-0.78-1.25-1.06-3.23-0.21-4.55 c0.34-0.53,0.2-2.43,0.2-3.16c0-7.17,12.58-7.18,12.58,0c0,0.91-0.21,2.58,0.28,3.29c0.83,1.2,0.4,3.31-0.3,4.42 c-0.44,1.3-2.14,3.2-1.99,3.93c0.93,4.71,6.01,2.03,8.42,5.32c2.27-1.78,6.79-2.28,9.54-3.93c2.52-1.51,2.09-2.46,2.07-4.97 l-4.01-0.57V82.89L68.23,82.89L68.23,82.89z M95.15,60.79H88.1c-1.28-1.81-2.77-3.25-4.39-4.31c-2.34-1.54-4.92-2.3-7.51-2.29 c-2.61,0.01-5.19,0.81-7.51,2.38c-1.55,1.05-2.98,2.46-4.21,4.22H34.2c-1.42-3.7-4.49-6.17-8.14-7.44 c-1.77-0.61-3.62-0.92-5.42-0.92c-1.8,0-3.65,0.31-5.42,0.92c-0.66,0.23-1.31,0.5-1.93,0.81v-1.5c0-1.01,0.83-1.85,1.85-1.85h1.34 V2.69c0-0.73,0.3-1.41,0.79-1.9l0,0C17.75,0.3,18.43,0,19.18,0c28.18,0,53.22,0,84.53,0c0.74,0,1.42,0.3,1.91,0.79 c0.05,0.05,0.09,0.1,0.13,0.14c0.42,0.47,0.66,1.09,0.66,1.76v48.13h1.34c1.01,0,1.85,0.83,1.85,1.85v4.65 c-1.39-0.4-2.82-0.59-4.2-0.59c-1.67,0-3.39,0.29-5.03,0.86C98.38,58.27,96.58,59.34,95.15,60.79L95.15,60.79z M74.46,21.54 c0,0.45-0.36,0.81-0.81,0.81s-0.81-0.36-0.81-0.81v-3.17c0-1.24-0.32-2.51-0.88-3.67c-0.58-1.21-1.4-2.3-2.38-3.13 c-2.09-1.77-4.83-2.67-7.59-2.7c-2.79-0.03-5.59,0.82-7.74,2.54c-1.04,0.83-1.99,1.91-2.65,3.13c-0.58,1.06-0.93,2.21-0.93,3.37 v3.67l0.02-0.01l0.73,0.91c-0.06-1.46-0.06-3.02,0-4.4c0.05-0.47,0.14-0.94,0.27-1.42c1.19-4.25,6.03-6.72,10.24-6.49 c3.26,0.18,6.32,1.37,8.26,3.6c2.7,3.12,2,6.97,1.91,10.78l0,0c0.61,0.19,1,0.57,1.15,1.19c0.17,0.69-0.02,1.66-0.6,2.98l0,0 c-0.01,0.02-0.02,0.05-0.04,0.07l-2.49,4.1c-0.96,1.58-1.94,3.17-3.23,4.38c-0.09,0.08,1.56,2.55,1.75,2.83 c2.73,2.06,9.73,2.53,12.4,4.01c0.87,0.49,1.66,1.11,2.29,1.94c1.5,1.98,1.68,2.3,2.22,4.54h17.58V3.26 c-21.96,0-59.73,0.02-83.4,0.02v47.34h17.58c0.54-2.25,0.71-2.56,2.22-4.54c0.63-0.84,1.42-1.46,2.29-1.94 c2.67-1.49,9.67-1.96,12.4-4.02l1.32-3.84c-0.78-0.93-1.46-1.98-2.1-3.01l-2.14-3.4c-0.16-0.01-0.32-0.04-0.48-0.09 c-1.71-0.54-3.13-4.35-2.86-6.15c0.16-1.02,0.52-1.38,1.1-1.61c-0.03-0.08-0.04-0.17-0.04-0.26v-3.84c0-1.44,0.43-2.86,1.14-4.15 c0.77-1.41,1.87-2.67,3.06-3.62c2.44-1.95,5.61-2.92,8.76-2.89c3.13,0.04,6.24,1.05,8.63,3.08c1.15,0.98,2.12,2.26,2.8,3.67 c0.66,1.38,1.04,2.89,1.04,4.37L74.46,21.54L74.46,21.54L74.46,21.54z M56.47,37.25c-0.36,1.2-1,3.32-1.6,4.23l3.47,7.05l1.93-4.08 c-3.08-4.82,5.84-4.54,2.7,0l1.93,4.08l3.24-7.05c-0.82-1.05-1.51-2.24-2.22-3.38C63.1,40.19,58.9,39.69,56.47,37.25L56.47,37.25z M52.5,25.36l0.95,2.6c0.1,0.3,0.13,0.56,0.09,0.79l0.01-0.01c1.48,1.65,3.31,2.84,5.51,3.53c0.11-0.25,0.27-0.48,0.49-0.65 c0.67-0.52,2.64-0.47,3.24,0.03c0.51,0.42,0.52,1.39,0.14,1.89c-0.79,1.05-4.05,0.17-5.15-0.19c-1.75-0.56-3.34-1.92-4.78-3.13 l1.49,2.36c0.88,1.39,1.79,2.81,2.94,3.86c1.1,1,2.43,1.68,4.19,1.69c1.91,0,3.3-0.7,4.43-1.76c1.18-1.1,2.11-2.61,3.02-4.12 l2.46-4.05c0.46-1.05,0.63-1.75,0.52-2.16c-0.06-0.25-0.33-0.36-0.79-0.39c-0.1,0-0.2,0-0.3,0c-0.11,0-0.23,0.01-0.34,0.02 c-0.07,0-0.13,0-0.19-0.01c-0.22,0.01-0.45,0-0.68-0.04l0.85-3.73c-6.26,0.98-10.93-3.66-17.54-0.93l0.48,4.4 c-0.27,0.01-0.52,0-0.75-0.03l0,0C52.68,25.34,52.59,25.35,52.5,25.36L52.5,25.36L52.5,25.36z"/></g></svg>